<?xml version="1.0" standalone="no"?>
<!DOCTYPE svg PUBLIC "-//W3C//DTD SVG 20010904//EN"
 "http://www.w3.org/TR/2001/REC-SVG-20010904/DTD/svg10.dtd">
<svg version="1.0" xmlns="http://www.w3.org/2000/svg"
 width="512.000000pt" height="512.000000pt" viewBox="0 0 512.000000 512.000000"
 preserveAspectRatio="xMidYMid meet">

<g transform="translate(0.000000,512.000000) scale(0.100000,-0.100000)"
fill="#000000" stroke="none">
<path d="M2055 5109 c-446 -58 -856 -338 -1074 -734 -125 -226 -181 -454 -181
-732 l0 -123 -320 0 -320 0 0 -480 0 -480 320 0 320 0 0 -800 0 -800 -320 0
-320 0 0 -480 0 -480 1120 0 1120 0 0 480 0 480 -320 0 -320 0 0 800 0 800
805 0 805 0 0 -800 0 -800 -325 0 -325 0 0 -480 0 -480 1120 0 1120 0 0 480 0
480 -320 0 -320 0 0 1280 0 1280 -1280 0 -1280 0 0 108 c0 124 16 198 62 284
36 68 128 158 199 193 96 49 143 55 431 55 l268 0 0 480 0 480 -297 -1 c-164
-1 -329 -6 -368 -10z"/>
<path d="M3721 5104 c-253 -68 -410 -331 -346 -579 67 -256 329 -415 580 -350
256 67 415 329 350 578 -67 259 -333 419 -584 351z"/>
</g>
</svg>
